<svg width="489" height="87" viewBox="0 0 489 87" fill="none" xmlns="http://www.w3.org/2000/svg">
<path d="M477.639 24.9016V41.2822H455.643V24.9016H444.799V68.1559H455.643V50.6749H477.639V68.1559H488.484V24.9016H477.639Z" fill="#00B956"/>
<path d="M280.63 50.3687L287.312 34.6574C287.516 34.1696 287.902 34.0449 288.196 34.0449C288.48 34.0449 288.866 34.1696 289.081 34.6574L295.763 50.3687H280.641H280.63ZM297.09 29.7228C295.286 25.7978 291.668 23.8694 288.196 23.8694C284.714 23.8694 281.107 25.7978 279.291 29.7228L261.561 68.1559H273.098L276.966 59.0241H299.438L303.307 68.1559H314.832L297.101 29.7228H297.09Z" fill="#00B956"/>
<path d="M168.088 17.063C163.006 17.063 159.773 19.7628 157.368 25.2079L143.233 57.7649L129.087 25.2079C126.694 19.7628 123.449 17.063 118.367 17.063C113.614 17.063 108.714 20.4662 108.714 27.851V68.1559H119.547V28.9627L133.772 61.2361C135.678 65.751 138.752 68.5869 143.233 68.5869C147.703 68.5869 150.777 65.751 152.694 61.2361L166.919 28.9627V68.1559H177.753V27.851C177.753 20.4662 172.841 17.063 168.088 17.063Z" fill="#00B956"/>
<path d="M196.743 59.0127C196.221 59.0127 195.812 58.593 195.812 58.0825V50.3686H222.845V41.5544H195.812V34.975C195.812 34.4759 196.221 34.0448 196.743 34.0448H223.469V24.9016H191.411C187.656 24.9016 184.956 28.0439 184.956 31.3563V61.7125C184.956 65.0249 187.656 68.1672 191.411 68.1672H223.469V59.024H196.743V59.0127Z" fill="#00B956"/>
<path d="M241.857 68.156V34.9637C241.857 34.4646 242.265 34.0336 242.787 34.0336H269.513V24.8904H237.455C233.701 24.8904 231.001 28.0326 231.001 31.3451V68.156H241.845H241.857Z" fill="#00B956"/>
<path d="M414.533 59.625H411.062C402.021 59.625 398.527 55.5526 398.527 46.5001V46.4661C398.527 37.6632 401.601 33.3412 411.062 33.3412H414.533C423.733 33.3412 427.068 37.6632 427.068 46.4547V46.5001C427.068 55.5639 423.506 59.625 414.533 59.625ZM437.629 46.4547C437.629 31.2993 431.118 24.2434 414.703 24.2434H410.914C394.488 24.2434 387.988 31.3107 387.977 46.4547V46.4774C387.977 61.3833 394.625 68.5753 411.005 68.5753H414.601C430.982 68.5753 437.629 61.3833 437.629 46.4774V46.4547Z" fill="#00B956"/>
<path d="M368.966 46.455C367.343 50.743 364.712 53.4769 357.372 53.4769H352.403V27.2045H359.074C365.324 27.2045 369.589 31.1068 369.589 40.3407C369.589 42.7116 369.589 44.8102 368.977 46.455M341.593 53.4769H336.624C329.285 53.4769 326.641 50.743 325.031 46.455C324.407 44.7988 324.407 42.7116 324.407 40.3407C324.407 31.1181 328.672 27.2045 334.923 27.2045H341.593V53.4769ZM357.735 18.084H336.272C320.255 18.084 313.846 26.1835 313.846 40.318C313.846 42.5301 313.97 44.572 314.299 46.455C315.99 56.4604 321.877 62.6087 336.874 62.6087H341.593V68.1559H352.415V62.6087H357.134C372.142 62.6087 378.018 56.4604 379.72 46.455C380.037 44.572 380.162 42.5301 380.162 40.318C380.162 26.1835 373.764 18.084 357.735 18.084Z" fill="#00B956"/>
<path d="M71.3402 67.7418C68.4312 67.7418 66.0621 65.3719 66.0621 62.4483C66.0621 59.5247 68.4202 57.1548 71.3402 57.1548C74.2602 57.1548 76.6072 59.5247 76.6072 62.4483C76.6072 65.3719 74.2492 67.7418 71.3402 67.7418ZM58.977 67.7418C56.0681 67.7418 53.71 65.3719 53.71 62.4483C53.71 59.5247 56.0681 57.1548 58.977 57.1548C61.886 57.1548 64.2551 59.5247 64.2551 62.4483C64.2551 65.3719 61.886 67.7418 58.977 67.7418ZM46.6139 67.7418C43.6939 67.7418 41.3469 65.3719 41.3469 62.4483C41.3469 59.5247 43.7049 57.1548 46.6139 57.1548C49.5229 57.1548 51.8809 59.5247 51.8809 62.4483C51.8809 65.3719 49.5229 67.7418 46.6139 67.7418ZM47.4734 2.56991V46.291C47.4513 48.1958 45.9197 49.724 44.0355 49.724H38.8456C38.5922 49.724 38.3828 49.9344 38.3828 50.1891V86.8227C39.661 86.9445 40.9612 86.9999 42.2725 86.9999C65.5553 86.9999 84.4416 68.0297 84.4416 44.6188C84.4416 22.9908 68.31 5.13914 47.4734 2.55884" fill="#00B956"/>
<path d="M35.0561 36.2854C32.0639 36.2854 29.6385 33.825 29.6385 30.7897C29.6385 27.7544 32.0639 25.294 35.0561 25.294C38.0483 25.294 40.4851 27.7544 40.4851 30.7897C40.4851 33.825 38.0596 36.2854 35.0561 36.2854ZM43.3753 0C19.4152 0 0 19.6948 0 44.0001C0 65.0976 14.6322 82.7229 34.1607 86.9999V47.5182C34.1947 45.6097 35.6908 44.0806 37.5609 44.0001H39.363H43.0239C43.2846 44.0001 43.4886 43.8046 43.4999 43.5402V0.0115085H43.3639L43.3753 0Z" fill="#00B956"/>
</svg>
